<?xml version="1.0" encoding="UTF-8" standalone="no"?>
<!-- Created with Inkscape (http://www.inkscape.org/) -->

<svg
   width="28.90077mm"
   height="32.455551mm"
   viewBox="0 0 28.90077 32.455551"
   version="1.1"
   id="svg1"
   inkscape:export-filename="Livraria.svg"
   inkscape:export-xdpi="96"
   inkscape:export-ydpi="96"
   sodipodi:docname="Livraria.svg"
   inkscape:version="1.3.2 (091e20e, 2023-11-25, custom)"
   xmlns:inkscape="http://www.inkscape.org/namespaces/inkscape"
   xmlns:sodipodi="http://sodipodi.sourceforge.net/DTD/sodipodi-0.dtd"
   xmlns="http://www.w3.org/2000/svg"
   xmlns:svg="http://www.w3.org/2000/svg">
  <sodipodi:namedview
     id="namedview1"
     pagecolor="#ffffff"
     bordercolor="#999999"
     borderopacity="1"
     inkscape:showpageshadow="2"
     inkscape:pageopacity="0"
     inkscape:pagecheckerboard="0"
     inkscape:deskcolor="#d1d1d1"
     inkscape:document-units="mm"
     inkscape:zoom="2.0485264"
     inkscape:cx="-51.744513"
     inkscape:cy="33.926827"
     inkscape:window-width="1920"
     inkscape:window-height="1009"
     inkscape:window-x="-8"
     inkscape:window-y="-8"
     inkscape:window-maximized="1"
     inkscape:current-layer="layer1" />
  <defs
     id="defs1" />
  <g
     inkscape:label="Layer 1"
     inkscape:groupmode="layer"
     id="layer1"
     transform="translate(-39.619519,-60.33412)">
    <path
       style="font-size:42.3333px;line-height:0.4;font-family:'Segoe Script';-inkscape-font-specification:'Segoe Script, Normal';letter-spacing:0px;stroke-width:4.157;stroke-linecap:square;stroke-miterlimit:2.8;paint-order:markers fill stroke;fill:#1e1300;fill-opacity:1"
       d="m 62.956582,88.320649 c -0.275607,0.344509 -0.627007,0.627007 -1.054199,0.847493 -0.427191,0.206705 -0.806151,0.310058 -1.13688,0.310058 -0.192925,0 -0.434082,0.0069 -0.72347,0.02067 -0.289388,0 -0.592556,0.0069 -0.909504,0.02067 -0.303169,0 -0.599447,0.0069 -0.888834,0.02067 h -0.72347 c -0.881944,0 -1.805229,0.07579 -2.769855,0.227376 -0.950845,0.137803 -1.901691,0.323838 -2.852536,0.558105 -0.950846,0.220486 -1.894802,0.454752 -2.831867,0.702799 -0.923285,0.261827 -1.798338,0.502983 -2.625161,0.723469 -0.826822,0.234267 -1.598523,0.420302 -2.315102,0.558105 -0.702799,0.151585 -1.309135,0.227377 -1.819009,0.227377 -0.826823,0 -1.4745,-0.192925 -1.943033,-0.578776 -0.454752,-0.37207 -0.695908,-0.819932 -0.723469,-1.343586 -0.02756,-0.330729 -0.02756,-0.72347 0,-1.178222 0.02756,-0.454753 0.08268,-0.950846 0.165364,-1.48828 0.08268,-0.537435 0.179145,-1.10243 0.289388,-1.694986 0.110243,-0.606336 0.234267,-1.219563 0.37207,-1.83968 0.08268,-0.413411 0.186036,-0.950845 0.310059,-1.612303 0.137803,-0.661458 0.268717,-1.350477 0.39274,-2.067056 0.124023,-0.730359 0.241157,-1.433158 0.3514,-2.108397 0.110243,-0.689018 0.199815,-1.254013 0.268717,-1.694985 0.151584,-1.005967 0.289388,-1.908582 0.413411,-2.707843 0.137804,-0.813042 0.261827,-1.591633 0.37207,-2.335773 0.124023,-0.74414 0.241157,-1.49517 0.3514,-2.253091 0.110243,-0.771701 0.213595,-1.632974 0.310058,-2.58382 0.08268,-1.033528 0.137803,-1.956813 0.165364,-2.769854 0.04134,-0.813042 0.130913,-1.495171 0.268718,-2.046386 0.151584,-0.564995 0.38585,-0.992186 0.702799,-1.281574 0.330729,-0.303168 0.833712,-0.454752 1.50895,-0.454752 0.385851,0 0.702799,0.07579 0.950846,0.227376 0.261827,0.151584 0.475423,0.351399 0.640787,0.599446 0.165365,0.248047 0.289388,0.530544 0.37207,0.847493 0.08268,0.316949 0.137804,0.633897 0.165365,0.950845 0.01378,0.09646 -0.03445,0.406521 -0.144694,0.930175 -0.09646,0.523655 -0.227376,1.178222 -0.392741,1.963703 -0.165364,0.771701 -0.351399,1.632975 -0.558105,2.58382 -0.206705,0.950845 -0.413411,1.915471 -0.620117,2.893878 -0.192925,0.978407 -0.37896,1.929252 -0.558105,2.852537 -0.165364,0.909505 -0.296277,1.708766 -0.39274,2.397785 -0.08268,0.606336 -0.186036,1.260904 -0.310059,1.963703 -0.110243,0.689018 -0.227376,1.391817 -0.351399,2.108396 l -0.37207,2.108397 c -0.124023,0.702799 -0.234266,1.364257 -0.330729,1.984374 -0.09646,0.606336 -0.172255,1.157551 -0.227376,1.653644 -0.04134,0.482313 -0.04823,0.868164 -0.02067,1.157552 0.02756,0.248047 0.130913,0.475423 0.310059,0.682128 0.179145,0.206705 0.420301,0.310058 0.723469,0.310058 0.330729,0 0.829879,-0.05901 1.240234,-0.124023 0.543274,-0.08607 1.047308,-0.213596 1.612303,-0.351399 0.578776,-0.151585 1.164442,-0.310059 1.756998,-0.475423 0.592555,-0.179145 1.15755,-0.34451 1.694985,-0.496094 0.124023,-0.04134 0.35829,-0.09646 0.702799,-0.165364 0.35829,-0.08268 0.764811,-0.172254 1.219563,-0.268717 0.468533,-0.09646 0.964626,-0.192925 1.48828,-0.289388 0.523654,-0.09646 1.012857,-0.186035 1.46761,-0.268717 0.468533,-0.08268 0.881944,-0.151585 1.240233,-0.206706 0.35829,-0.05512 0.606337,-0.08268 0.74414,-0.08268 0.179145,0 0.427192,-0.02067 0.74414,-0.06201 0.330729,-0.04134 0.702799,-0.07579 1.11621,-0.103353 0.413411,-0.02756 0.861274,-0.04134 1.343587,-0.04134 0.482313,0 0.964626,0.04823 1.446939,0.144694 0.248047,0.05512 0.434082,0.179143 0.558105,0.37207 0.124023,0.179145 0.192925,0.39274 0.206705,0.640787 0.01378,0.248047 -0.01378,0.496094 -0.08268,0.744141 -0.0689,0.248047 -0.172255,0.461642 -0.310058,0.640787 z"
       id="text1"
       aria-label="L"
       sodipodi:nodetypes="scscccscccccsccsscccccccccccccscsscccscccccscccssacccccscsscssccssss" />
    <path
       style="fill:#1e1300;fill-opacity:1;stroke:none;stroke-width:4.157;stroke-linecap:square;stroke-miterlimit:2.8;stroke-opacity:1;paint-order:markers fill stroke"
       d="m 79.273063,127.12915 c -7.156121,2.87283 -13.000902,8.85354 -15.708487,16.0738 -2.197976,5.8613 -2.347365,12.43818 -0.600277,18.44931 1.747088,6.01112 5.355644,11.43929 10.09843,15.52486 3.780891,3.25697 8.300661,5.68733 13.154528,6.84619 4.853866,1.15886 10.038258,1.02244 14.762943,-0.5839 4.72469,-1.60635 8.96192,-4.70473 11.76154,-8.83572 2.79963,-4.13099 4.11057,-9.28761 3.428,-14.231 -0.44792,-3.24397 -1.73813,-6.36799 -3.70981,-8.98264 -1.97168,-2.61466 -4.62047,-4.71419 -7.61621,-6.03687 -2.99574,-1.32269 -6.33181,-1.86562 -9.592367,-1.56111 -3.260557,0.3045 -6.438403,1.45577 -9.13742,3.3103"
       id="path4"
       transform="matrix(-0.27575396,-0.23187489,0.24486289,-0.29119975,45.173223,137.69096)"
       sodipodi:nodetypes="csssc" />
    <circle
       style="fill:#1e1300;fill-opacity:1;stroke:none;stroke-width:1.38567;stroke-linecap:square;stroke-miterlimit:2.8;stroke-opacity:1;paint-order:markers fill stroke"
       id="path10"
       cx="57.171581"
       cy="91.693726"
       r="1.0959411" />
  </g>
</svg>
